<mxfile host="app.diagrams.net" modified="2024-03-09T04:19:59.408Z" agent="Mozilla/5.0 (Windows NT 10.0; Win64; x64) AppleWebKit/537.36 (KHTML, like Gecko) Chrome/122.0.0.0 Safari/537.36" etag="D19vDigW02wS7chvPQU9" version="24.0.3" type="github">
  <diagram name="Page-1" id="zSeEYP3rkDgo3O7wzYs9">
    <mxGraphModel dx="1100" dy="533" grid="1" gridSize="10" guides="1" tooltips="1" connect="1" arrows="1" fold="1" page="1" pageScale="1" pageWidth="1169" pageHeight="827" math="0" shadow="0">
      <root>
        <mxCell id="0" />
        <mxCell id="1" parent="0" />
        <mxCell id="f_frqgxSV8PnUbMk8lL_-1" value="User" style="ellipse;aspect=fixed;strokeWidth=2;whiteSpace=wrap;" vertex="1" parent="1">
          <mxGeometry x="255" y="100" width="48" height="48" as="geometry" />
        </mxCell>
        <mxCell id="f_frqgxSV8PnUbMk8lL_-2" value="Post" style="ellipse;aspect=fixed;strokeWidth=2;whiteSpace=wrap;" vertex="1" parent="1">
          <mxGeometry x="400" y="40" width="45" height="45" as="geometry" />
        </mxCell>
        <mxCell id="f_frqgxSV8PnUbMk8lL_-3" value="Post" style="ellipse;aspect=fixed;strokeWidth=2;whiteSpace=wrap;" vertex="1" parent="1">
          <mxGeometry x="400" y="170" width="45" height="45" as="geometry" />
        </mxCell>
        <mxCell id="f_frqgxSV8PnUbMk8lL_-4" value="Post" style="ellipse;aspect=fixed;strokeWidth=2;whiteSpace=wrap;" vertex="1" parent="1">
          <mxGeometry x="80" y="310" width="45" height="45" as="geometry" />
        </mxCell>
        <mxCell id="f_frqgxSV8PnUbMk8lL_-5" value="Comment" style="ellipse;aspect=fixed;strokeWidth=2;whiteSpace=wrap;" vertex="1" parent="1">
          <mxGeometry x="280" y="290.5" width="84" height="84" as="geometry" />
        </mxCell>
        <mxCell id="f_frqgxSV8PnUbMk8lL_-6" value="Post" style="ellipse;aspect=fixed;strokeWidth=2;whiteSpace=wrap;" vertex="1" parent="1">
          <mxGeometry x="70" y="100" width="45" height="45" as="geometry" />
        </mxCell>
        <mxCell id="f_frqgxSV8PnUbMk8lL_-7" value="Creates" style="curved=1;startArrow=none;endArrow=block;entryX=-0.056;entryY=0.683;rounded=0;entryDx=0;entryDy=0;exitX=1;exitY=0;exitDx=0;exitDy=0;entryPerimeter=0;" edge="1" parent="1" source="f_frqgxSV8PnUbMk8lL_-1" target="f_frqgxSV8PnUbMk8lL_-2">
          <mxGeometry relative="1" as="geometry">
            <Array as="points" />
            <mxPoint x="330" y="70" as="sourcePoint" />
          </mxGeometry>
        </mxCell>
        <mxCell id="f_frqgxSV8PnUbMk8lL_-8" value="Comments on" style="curved=1;startArrow=none;endArrow=block;exitX=1;exitY=1;entryX=0;entryY=0.5;rounded=0;entryDx=0;entryDy=0;exitDx=0;exitDy=0;" edge="1" parent="1" source="f_frqgxSV8PnUbMk8lL_-1" target="f_frqgxSV8PnUbMk8lL_-3">
          <mxGeometry relative="1" as="geometry">
            <Array as="points" />
          </mxGeometry>
        </mxCell>
        <mxCell id="f_frqgxSV8PnUbMk8lL_-9" value="Contains" style="curved=1;startArrow=none;endArrow=block;exitX=1;exitY=0.5;entryX=0;entryY=0.5;rounded=0;exitDx=0;exitDy=0;entryDx=0;entryDy=0;" edge="1" parent="1" source="f_frqgxSV8PnUbMk8lL_-4" target="f_frqgxSV8PnUbMk8lL_-5">
          <mxGeometry relative="1" as="geometry">
            <Array as="points" />
          </mxGeometry>
        </mxCell>
        <mxCell id="f_frqgxSV8PnUbMk8lL_-10" value="Belongs to" style="curved=1;startArrow=none;endArrow=block;exitX=1;exitY=0.5;entryX=0;entryY=0.5;rounded=0;exitDx=0;exitDy=0;entryDx=0;entryDy=0;" edge="1" parent="1" source="f_frqgxSV8PnUbMk8lL_-6" target="f_frqgxSV8PnUbMk8lL_-1">
          <mxGeometry relative="1" as="geometry">
            <Array as="points" />
          </mxGeometry>
        </mxCell>
      </root>
    </mxGraphModel>
  </diagram>
</mxfile>
